# Blender v2.79 (sub 0) OBJ File: ''
# www.blender.org
mtllib waypointArrow.mtl
o Cone
v 0.000000 -0.133063 -0.853844
v 0.000000 -0.003181 -2.854254
v 0.195090 -0.130445 -0.853852
v 0.382683 -0.122692 -0.853877
v 0.555570 -0.110102 -0.853917
v 0.707107 -0.093158 -0.853971
v 0.831470 -0.072512 -0.854036
v 0.923880 -0.048957 -0.854111
v 0.980785 -0.023399 -0.854192
v 1.000000 0.003181 -0.854277
v 0.980785 0.029760 -0.854362
v 0.923880 0.055319 -0.854443
v 0.831470 0.078873 -0.854518
v 0.707107 0.099519 -0.854583
v 0.555570 0.116463 -0.854637
v 0.382683 0.129053 -0.854677
v 0.195090 0.136806 -0.854702
v -0.000000 0.139424 -0.854710
v -0.195091 0.136806 -0.854702
v -0.382684 0.129053 -0.854677
v -0.555571 0.116463 -0.854637
v -0.707107 0.099519 -0.854583
v -0.831470 0.078873 -0.854518
v -0.923880 0.055319 -0.854443
v -0.980785 0.029760 -0.854362
v -1.000000 0.003181 -0.854277
v -0.980785 -0.023399 -0.854192
v -0.923879 -0.048958 -0.854111
v -0.831469 -0.072512 -0.854036
v -0.707106 -0.093158 -0.853971
v -0.555569 -0.110102 -0.853917
v -0.382682 -0.122692 -0.853877
v -0.195089 -0.130445 -0.853852
vn 0.0134 -0.9978 -0.0648
vn 0.0412 -0.9969 -0.0674
vn 0.0724 -0.9947 -0.0733
vn 0.1107 -0.9903 -0.0837
vn 0.1629 -0.9814 -0.1017
vn 0.2446 -0.9602 -0.1350
vn 0.4007 -0.8929 -0.2055
vn 0.7511 -0.5442 -0.3738
vn 0.7511 0.5418 -0.3773
vn 0.4007 0.8915 -0.2112
vn 0.2446 0.9593 -0.1411
vn 0.1629 0.9807 -0.1080
vn 0.1107 0.9898 -0.0900
vn 0.0724 0.9942 -0.0796
vn 0.0412 0.9964 -0.0738
vn 0.0134 0.9974 -0.0711
vn -0.0134 0.9974 -0.0711
vn -0.0412 0.9964 -0.0738
vn -0.0724 0.9942 -0.0796
vn -0.1107 0.9898 -0.0900
vn -0.1629 0.9807 -0.1080
vn -0.2446 0.9593 -0.1411
vn -0.4007 0.8915 -0.2112
vn -0.7511 0.5418 -0.3773
vn -0.7511 -0.5442 -0.3738
vn -0.4007 -0.8929 -0.2055
vn -0.2446 -0.9602 -0.1350
vn -0.1629 -0.9814 -0.1017
vn -0.1107 -0.9903 -0.0837
vn -0.0724 -0.9947 -0.0733
vn -0.0412 -0.9969 -0.0674
vn -0.0134 -0.9978 -0.0648
vn 0.0000 0.0032 1.0000
usemtl None
s off
f 1//1 2//1 3//1
f 3//2 2//2 4//2
f 4//3 2//3 5//3
f 5//4 2//4 6//4
f 6//5 2//5 7//5
f 7//6 2//6 8//6
f 8//7 2//7 9//7
f 9//8 2//8 10//8
f 10//9 2//9 11//9
f 11//10 2//10 12//10
f 12//11 2//11 13//11
f 13//12 2//12 14//12
f 14//13 2//13 15//13
f 15//14 2//14 16//14
f 16//15 2//15 17//15
f 17//16 2//16 18//16
f 18//17 2//17 19//17
f 19//18 2//18 20//18
f 20//19 2//19 21//19
f 21//20 2//20 22//20
f 22//21 2//21 23//21
f 23//22 2//22 24//22
f 24//23 2//23 25//23
f 25//24 2//24 26//24
f 26//25 2//25 27//25
f 27//26 2//26 28//26
f 28//27 2//27 29//27
f 29//28 2//28 30//28
f 30//29 2//29 31//29
f 31//30 2//30 32//30
f 32//31 2//31 33//31
f 33//32 2//32 1//32
f 1//33 3//33 4//33 5//33 6//33 7//33 8//33 9//33 10//33 11//33 12//33 13//33 14//33 15//33 16//33 17//33 18//33 19//33 20//33 21//33 22//33 23//33 24//33 25//33 26//33 27//33 28//33 29//33 30//33 31//33 32//33 33//33
o Cube
v 0.403483 -0.109810 -1.000000
v 0.403483 -0.109810 1.000000
v -0.403483 -0.109810 1.000000
v -0.403483 -0.109810 -1.000000
v 0.403483 0.109810 -0.999999
v 0.403483 0.109810 1.000001
v -0.403483 0.109810 1.000000
v -0.403483 0.109810 -1.000000
vn 0.0000 -1.0000 0.0000
vn 0.0000 1.0000 -0.0000
vn 1.0000 0.0000 0.0000
vn -0.0000 -0.0000 1.0000
vn -1.0000 -0.0000 -0.0000
vn 0.0000 0.0000 -1.0000
usemtl Material
s off
f 34//34 35//34 36//34 37//34
f 38//35 41//35 40//35 39//35
f 34//36 38//36 39//36 35//36
f 35//37 39//37 40//37 36//37
f 36//38 40//38 41//38 37//38
f 38//39 34//39 37//39 41//39
